<?xml version="1.0" standalone="no"?>
<!DOCTYPE svg PUBLIC "-//W3C//DTD SVG 20010904//EN"
 "http://www.w3.org/TR/2001/REC-SVG-20010904/DTD/svg10.dtd">
<svg version="1.0" xmlns="http://www.w3.org/2000/svg"
 width="640.000000pt" height="1280.000000pt" viewBox="0 0 640.000000 1280.000000"
 preserveAspectRatio="xMidYMid meet">
<metadata>
Created by potrace 1.15, written by Peter Selinger 2001-2017
</metadata>
<g transform="translate(0.000000,1280.000000) scale(0.100000,-0.100000)"
fill="#000000" stroke="none">
<path d="M3045 12775 c-523 -121 -880 -496 -927 -975 -23 -229 19 -692 92
-1015 106 -471 161 -830 196 -1275 20 -263 15 -844 -10 -1050 -52 -425 -130
-708 -296 -1065 -362 -781 -634 -1423 -725 -1715 -52 -165 -105 -549 -146
-1055 -17 -210 -23 -848 -10 -1045 29 -436 72 -686 177 -1025 201 -647 457
-1370 636 -1795 121 -285 292 -626 331 -659 7 -5 74 -21 148 -35 480 -89 969
-85 1339 9 52 14 108 28 124 33 25 7 43 31 109 148 99 171 352 670 436 859
289 643 484 1260 565 1785 134 873 135 1828 1 2415 -17 76 -149 418 -543 1405
-497 1244 -522 1311 -541 1420 -55 323 -80 767 -63 1120 17 339 35 495 92 779
172 861 221 1589 134 2001 -26 123 -121 268 -273 420 -176 174 -356 274 -576
321 -114 24 -147 23 -270 -6z"/>
</g>
</svg>
